<svg width="1440" height="567" viewBox="0 0 1440 567" fill="none" xmlns="http://www.w3.org/2000/svg">
<g opacity="0.84" filter="url(#filter0_f_1_242)">
<path d="M1328.74 361.338C1373.87 343.587 1392.32 324.149 1382.38 304.833C1372.44 285.517 1334.43 266.949 1271.89 250.855C1209.34 234.761 1124.29 221.664 1024.64 212.78C924.985 203.896 813.966 199.515 701.899 200.043C589.832 200.57 480.355 205.991 383.644 215.799C286.934 225.608 206.128 239.487 148.739 256.146C91.3494 272.804 59.2388 291.703 55.3917 311.084C51.5446 330.465 76.0858 349.699 126.734 367H719.5L1328.74 361.338Z" fill="url(#paint0_radial_1_242)"/>
<path d="M1328.74 361.338C1373.87 343.587 1392.32 324.149 1382.38 304.833C1372.44 285.517 1334.43 266.949 1271.89 250.855C1209.34 234.761 1124.29 221.664 1024.64 212.78C924.985 203.896 813.966 199.515 701.899 200.043C589.832 200.57 480.355 205.991 383.644 215.799C286.934 225.608 206.128 239.487 148.739 256.146C91.3494 272.804 59.2388 291.703 55.3917 311.084C51.5446 330.465 76.0858 349.699 126.734 367H719.5L1328.74 361.338Z" fill="url(#paint1_linear_1_242)" fill-opacity="0.4"/>
</g>
<defs>
<filter id="filter0_f_1_242" x="-145" y="0" width="1730" height="567" filterUnits="userSpaceOnUse" color-interpolation-filters="sRGB">
<feFlood flood-opacity="0" result="BackgroundImageFix"/>
<feBlend mode="normal" in="SourceGraphic" in2="BackgroundImageFix" result="shape"/>
<feGaussianBlur stdDeviation="100" result="effect1_foregroundBlur_1_242"/>
</filter>
<radialGradient id="paint0_radial_1_242" cx="0" cy="0" r="1" gradientUnits="userSpaceOnUse" gradientTransform="translate(624 271.106) rotate(58.8706) scale(185.696 854.199)">
<stop stop-color="#621ABE"/>
<stop offset="1" stop-color="#24214B" stop-opacity="0"/>
</radialGradient>
<linearGradient id="paint1_linear_1_242" x1="907.5" y1="315.274" x2="419.906" y2="280.385" gradientUnits="userSpaceOnUse">
<stop stop-color="#FF9C54"/>
<stop offset="0.459917" stop-color="white" stop-opacity="0.540083"/>
<stop offset="1" stop-opacity="0"/>
</linearGradient>
</defs>
</svg>
